<!-- icon666.com - MILLIONS vector ICONS FREE --><svg viewBox="0 -10 511.99878 511" xmlns="http://www.w3.org/2000/svg"><g fill-rule="evenodd"><path d="m241.351562 206.953125c-98.695312-30.417969-232.621093 11.863281-231.257812 126.902344.140625 11.464843 7.660156 20.828125 22.183594 20.828125h292.390625c11.886719 0 17.445312-6.269532 19.0625-14.839844.371093-1.902344.511719-3.917969.511719-5.988281 0-43.417969-19.121094-76.445313-48.253907-99.148438-15.773437-12.289062-34.46875-21.535156-54.636719-27.753906zm0 0" fill="#ffd89e"></path><path d="m53.410156 354.683594c-.027344 0-.054687 0-.054687 0-11.605469.027344-21.078125 9.535156-21.078125 21.140625v21.285156c0 11.632813 9.503906 21.140625 21.132812 21.140625h249.359375c11.601563 0 21.105469-9.507812 21.105469-21.140625v-21.285156c0-11.605469-9.445312-21.082031-20.992188-21.140625-.03125 0-.03125 0-.03125 0zm0 0" fill="#e8755d"></path><path d="m273.238281 418.25h-240.167969c-11.203124 0-20.394531 9.164062-20.394531 20.371094v22.417968c0 11.210938 9.191407 20.375 20.394531 20.375h290.804688c11.207031 0 20.367188-9.164062 20.367188-20.375v-22.417968c0-.738282-.027344-1.476563-.113282-2.183594-1.105468-10.1875-9.785156-18.1875-20.253906-18.1875zm0 0" fill="#ffd89e"></path><path d="m263.648438 354.683594h-126.4375l82.921874 36.238281 45.304688-24.40625 21.957031-11.832031zm0 0" fill="#ffbd5a"></path><path d="m353.375 203.578125c-24.023438 0-45.160156 12.398437-57.386719 31.128906 29.132813 22.703125 48.253907 55.730469 48.253907 99.148438 0 2.070312-.140626 4.085937-.511719 5.988281 3.148437.453125 6.355469.679688 9.644531.679688 37.789062 0 68.453125-30.644532 68.453125-68.472657 0-37.800781-30.664063-68.472656-68.453125-68.472656zm0 0" fill="#ffbd5a"></path><path d="m339.503906 82.097656h-109.160156c-10.921875 0-19.855469 8.9375-19.855469 19.863282v12.144531c0 10.925781 8.933594 19.894531 19.855469 19.894531h251.683594c10.921875 0 19.886718-8.96875 19.886718-19.894531v-12.144531c0-10.925782-8.964843-19.863282-19.886718-19.863282zm0 0" fill="#b0e7f8"></path><path d="m482.027344 133.996094h-251.683594l11.007812 72.957031c20.167969 6.21875 38.863282 15.464844 54.636719 27.753906 12.226563-18.730469 33.363281-31.128906 57.390625-31.128906 37.785156 0 68.453125 30.671875 68.453125 68.472656 0 37.828125-30.667969 68.472657-68.453125 68.472657-3.292968 0-6.5-.226563-9.648437-.679688-1.617188 8.570312-7.175781 14.839844-19.0625 14.839844h-21.785157c11.546876.058594 20.992188 9.535156 20.992188 21.140625v21.285156c0 11.632813-9.503906 21.140625-21.105469 21.140625h21.105469c10.464844 0 19.148438 8 20.253906 18.1875h103.6875zm0 0" fill="#52cbf0"></path></g><path d="m63.738281 318.65625h.226563c5.570312 0 10.082031-4.515625 10.082031-10.082031 0-5.570313-4.511719-10.085938-10.082031-10.085938h-.226563c-5.570312 0-10.085937 4.515625-10.085937 10.085938 0 5.566406 4.515625 10.082031 10.085937 10.082031zm0 0"></path><path d="m137.042969 318.65625h.226562c5.570313 0 10.085938-4.515625 10.085938-10.082031 0-5.570313-4.515625-10.085938-10.085938-10.085938h-.226562c-5.570313 0-10.085938 4.515625-10.085938 10.085938 0 5.566406 4.515625 10.082031 10.085938 10.082031zm0 0"></path><path d="m210.34375 318.65625h.226562c5.570313 0 10.085938-4.515625 10.085938-10.082031 0-5.570313-4.515625-10.085938-10.085938-10.085938h-.226562c-5.570312 0-10.082031 4.515625-10.082031 10.085938 0 5.566406 4.511719 10.082031 10.082031 10.082031zm0 0"></path><path d="m283.421875 318.65625h.226563c5.570312 0 10.085937-4.515625 10.085937-10.082031 0-5.570313-4.515625-10.085938-10.085937-10.085938h-.226563c-5.570313 0-10.085937 4.515625-10.085937 10.085938 0 5.566406 4.515624 10.082031 10.085937 10.082031zm0 0"></path><path d="m101.242188 283.722656h.226562c5.570312 0 10.085938-4.515625 10.085938-10.082031 0-5.570313-4.515626-10.085937-10.085938-10.085937h-.226562c-5.570313 0-10.085938 4.515624-10.085938 10.085937 0 5.566406 4.515625 10.082031 10.085938 10.082031zm0 0"></path><path d="m174.542969 283.722656h.226562c5.570313 0 10.085938-4.515625 10.085938-10.082031 0-5.570313-4.515625-10.085937-10.085938-10.085937h-.226562c-5.570313 0-10.085938 4.515624-10.085938 10.085937 0 5.566406 4.515625 10.082031 10.085938 10.082031zm0 0"></path><path d="m247.847656 283.722656h.226563c5.570312 0 10.085937-4.515625 10.085937-10.082031 0-5.570313-4.515625-10.085937-10.085937-10.085937h-.226563c-5.570312 0-10.085937 4.515624-10.085937 10.085937 0 5.566406 4.515625 10.082031 10.085937 10.082031zm0 0"></path><path d="m137.15625 252.507812h.253906c5.570313 0 10.085938-4.511718 10.085938-10.082031 0-5.570312-4.515625-10.085937-10.085938-10.085937h-.253906c-5.570312 0-10.085938 4.515625-10.085938 10.085937 0 5.570313 4.515626 10.082031 10.085938 10.082031zm0 0"></path><path d="m210.457031 252.507812h.230469c5.566406 0 10.082031-4.511718 10.082031-10.082031 0-5.570312-4.515625-10.085937-10.082031-10.085937h-.230469c-5.566406 0-10.082031 4.515625-10.082031 10.085937 0 5.570313 4.515625 10.082031 10.082031 10.082031zm0 0"></path><path d="m482.027344 72.011719h-129.203125l9.40625-33.394531 55.546875-18.460938c5.285156-1.753906 8.144531-7.464844 6.386718-12.75-1.753906-5.285156-7.464843-8.148438-12.75-6.390625l-60.621093 20.148437c-3.175781 1.054688-5.621094 3.617188-6.527344 6.835938l-12.398437 44.011719h-101.523438c-16.511719 0-29.941406 13.4375-29.941406 29.949219v12.144531c0 13.4375 8.875 24.832031 21.0625 28.632812l7.609375 50.449219c-16.785157-3.851562-34.515625-5.859375-52.714844-5.859375-55.9375 0-106.539063 18.742187-138.832031 51.421875-24.984375 25.28125-37.957032 58.207031-37.5156252 95.230469.1914062 15.515625 9.9414062 27.015625 24.5156252 30.011719-1.5 3.652343-2.332032 7.648437-2.332032 11.832031v21.285156c0 4.339844.890626 8.476563 2.5 12.234375-12.746093 3.648438-22.105468 15.386719-22.105468 29.277344v22.417968c0 16.796876 13.675781 30.460938 30.484375 30.460938h290.800781c16.792969 0 30.453125-13.664062 30.453125-30.460938v-14.519531h93.488281c5.132813 0 9.445313-3.851562 10.019532-8.949219l33.363281-294.929687c12.050781-3.882813 20.800781-15.203125 20.800781-28.535156v-12.144531c0-16.515626-13.445312-29.949219-29.972656-29.949219zm-461.851563 261.726562c-.378906-31.960937 10.285157-59.148437 31.695313-80.8125 28.113281-28.445312 74.648437-45.429687 124.488281-45.429687 20.59375 0 41.609375 2.910156 61.308594 8.871094.46875.183593.953125.328124 1.449219.441406 18.175781 5.65625 35.183593 13.933594 49.648437 24.953125.511719.527343 1.082031 1.007812 1.726563 1.425781.125.082031.257812.148438.386718.226562 26.019532 20.679688 43.277344 50.570313 43.277344 90.441407 0 9.9375-4.296875 10.742187-9.488281 10.742187h-37.1875c-.042969 0-.089844 0-.132813 0h-149.980468c-.027344 0-.054688 0-.082032 0h-105.007812c-9.890625.003906-12.039063-5.910156-12.101563-10.859375zm334.105469-3.320312c-.851562-38.75-16.109375-72.039063-44.429688-97.261719 10.984376-12.335938 26.703126-19.492188 43.523438-19.492188 32.1875 0 58.371094 26.191407 58.371094 58.386719 0 31.890625-25.699219 57.878907-57.464844 58.367188zm-106.867188 34.351562-27.742187 14.945313-34.199219-14.945313zm86.742188 96.269531c0 5.675782-4.613281 10.292969-10.28125 10.292969h-290.804688c-5.683593 0-10.308593-4.617187-10.308593-10.292969v-22.417968c0-5.671875 4.625-10.289063 10.308593-10.289063h105.25c5.570313 0 10.082032-4.515625 10.082032-10.082031 0-5.570312-4.511719-10.085938-10.082032-10.085938h-84.910156c-6.089844 0-11.046875-4.957031-11.046875-11.058593v-21.28125c0-6.097657 4.957031-11.054688 11.046875-11.054688h81.691406l80.992188 35.390625c1.289062.5625 2.664062.84375 4.039062.84375 1.648438 0 3.292969-.402344 4.78125-1.207031l65.023438-35.027344h12.832031c6.078125 0 11.019531 4.957031 11.019531 11.054688v21.28125c0 6.101562-4.941406 11.058593-11.019531 11.058593h-84.507812c-5.570313 0-10.085938 4.515626-10.085938 10.085938 0 5.566406 4.515625 10.082031 10.085938 10.082031h105.613281c5.671875 0 10.285156 4.617188 10.285156 10.289063v22.417968zm104.652344-34.6875h-87.070313c-3.71875-8.417968-11.140625-14.847656-20.191406-17.207031 1.550781-3.707031 2.414063-7.773437 2.414063-12.035156v-21.285156c0-4.136719-.816407-8.082031-2.28125-11.695313 8.605468-1.640625 15.121093-6.382812 18.90625-13.566406.929687.03125 1.859374.046875 2.792968.046875 43.304688 0 78.535156-35.242187 78.535156-78.558594 0-43.316406-35.230468-78.554687-78.535156-78.554687-23.101562 0-44.652344 10.027344-59.46875 27.253906-13.019531-8.855469-27.691406-16.070312-43.523437-21.5l-8.320313-55.167969h73.953125c5.570313 0 10.085938-4.515625 10.085938-10.082031 0-5.570312-4.515625-10.085938-10.085938-10.085938h-85.671875c-5.390625 0-9.773437-4.398437-9.773437-9.808593v-12.144531c0-5.394532 4.382812-9.78125 9.773437-9.78125h109.121094c.015625 0 .03125.003906.042969.003906.023437 0 .046875-.003906.070312-.003906h142.449219c5.402344 0 9.800781 4.386718 9.800781 9.78125v12.144531c0 5.316406-4.488281 9.808593-9.800781 9.808593h-85.875c-5.570312 0-10.082031 4.515626-10.082031 10.085938 0 5.566406 4.511719 10.082031 10.082031 10.082031h74.582031zm0 0"></path><path d="m178.457031 408.164062h-.167969c-5.570312 0-10.085937 4.515626-10.085937 10.085938 0 5.566406 4.515625 10.082031 10.085937 10.082031h.167969c5.570313 0 10.085938-4.515625 10.085938-10.082031 0-5.570312-4.515625-10.085938-10.085938-10.085938zm0 0"></path><path d="m356.386719 123.914062h-.199219c-5.570312 0-10.085938 4.515626-10.085938 10.082032 0 5.570312 4.515626 10.085937 10.085938 10.085937h.199219c5.566406 0 10.082031-4.515625 10.082031-10.085937 0-5.566406-4.515625-10.082032-10.082031-10.082032zm0 0"></path></svg>